<svg width="24" height="24" viewBox="0 0 24 24" fill="none" xmlns="http://www.w3.org/2000/svg">
<path d="M7.96802 2.39999H16.032C19.104 2.39999 21.6 4.89599 21.6 7.96799V16.032C21.6 17.5087 21.0134 18.925 19.9692 19.9692C18.925 21.0134 17.5088 21.6 16.032 21.6H7.96802C4.89602 21.6 2.40002 19.104 2.40002 16.032V7.96799C2.40002 6.49127 2.98665 5.07503 4.03085 4.03082C5.07506 2.98662 6.4913 2.39999 7.96802 2.39999ZM7.77602 4.31999C6.85944 4.31999 5.98039 4.68411 5.33226 5.33223C4.68414 5.98036 4.32002 6.85941 4.32002 7.77599V16.224C4.32002 18.1344 5.86562 19.68 7.77602 19.68H16.224C17.1406 19.68 18.0197 19.3159 18.6678 18.6678C19.3159 18.0196 19.68 17.1406 19.68 16.224V7.77599C19.68 5.86559 18.1344 4.31999 16.224 4.31999H7.77602ZM17.04 5.75999C17.3583 5.75999 17.6635 5.88642 17.8886 6.11147C18.1136 6.33651 18.24 6.64173 18.24 6.95999C18.24 7.27825 18.1136 7.58348 17.8886 7.80852C17.6635 8.03357 17.3583 8.15999 17.04 8.15999C16.7218 8.15999 16.4165 8.03357 16.1915 7.80852C15.9665 7.58348 15.84 7.27825 15.84 6.95999C15.84 6.64173 15.9665 6.33651 16.1915 6.11147C16.4165 5.88642 16.7218 5.75999 17.04 5.75999ZM12 7.19999C13.2731 7.19999 14.494 7.70571 15.3941 8.60588C16.2943 9.50606 16.8 10.727 16.8 12C16.8 13.273 16.2943 14.4939 15.3941 15.3941C14.494 16.2943 13.2731 16.8 12 16.8C10.727 16.8 9.50609 16.2943 8.60591 15.3941C7.70574 14.4939 7.20002 13.273 7.20002 12C7.20002 10.727 7.70574 9.50606 8.60591 8.60588C9.50609 7.70571 10.727 7.19999 12 7.19999ZM12 9.11999C11.2362 9.11999 10.5037 9.42342 9.96356 9.96353C9.42345 10.5036 9.12002 11.2362 9.12002 12C9.12002 12.7638 9.42345 13.4964 9.96356 14.0365C10.5037 14.5766 11.2362 14.88 12 14.88C12.7638 14.88 13.4964 14.5766 14.0365 14.0365C14.5766 13.4964 14.88 12.7638 14.88 12C14.88 11.2362 14.5766 10.5036 14.0365 9.96353C13.4964 9.42342 12.7638 9.11999 12 9.11999Z" fill="white"/>
</svg>
