<svg width="10" height="10" viewBox="0 0 10 10" fill="none" xmlns="http://www.w3.org/2000/svg">
<path d="M4.08364 1.09743C4.43295 0.297902 5.56705 0.297901 5.91636 1.09743L6.66744 2.81655C6.7683 3.04741 6.95259 3.2317 7.18345 3.33256L8.90257 4.08364C9.7021 4.43295 9.7021 5.56705 8.90257 5.91636L7.18345 6.66744C6.95259 6.7683 6.7683 6.95259 6.66744 7.18345L5.91636 8.90257C5.56705 9.7021 4.43295 9.7021 4.08364 8.90257L3.33256 7.18345C3.2317 6.95259 3.04741 6.7683 2.81655 6.66744L1.09743 5.91636C0.297902 5.56705 0.297901 4.43295 1.09743 4.08364L2.81655 3.33256C3.04741 3.2317 3.2317 3.04741 3.33256 2.81655L4.08364 1.09743Z" fill="white"/>
</svg>
