<svg width="180" height="33" viewBox="0 0 180 33" fill="none" xmlns="http://www.w3.org/2000/svg">
<path d="M7.25979 1C4.79197 1.97876 2.50846 2.74754 1.43518 4.83333C-0.209243 8.02908 3.06161 11.7835 6.97392 12.7778C14.5203 14.6956 23.3503 14.4695 31.13 14.1111C43.0006 13.5643 54.6689 12.894 66.435 11.3889C72.9027 10.5615 91.6579 6.61149 95.6295 13.4722C97.3019 16.3612 92.445 20.8887 89.3047 17.75C87.7536 16.1998 96.4781 14.2503 97.6664 14.1111C104.524 13.3078 112.212 13.6007 119.107 13.5278C136.501 13.3438 157.525 11.2625 171.921 20.2778C174.964 22.183 178.821 25.1213 178.997 28.3889C179.057 29.5088 178.327 32 177.067 32" stroke="#222222" stroke-linecap="round"/>
</svg>
